<svg width="997" height="1036" viewBox="0 0 997 1036" fill="none" xmlns="http://www.w3.org/2000/svg">
<path fill-rule="evenodd" clip-rule="evenodd" d="M485.379 1.20137C464.216 4.7845 444.999 19.2151 431.797 41.4419C424.171 54.2823 421.951 59.4608 417.366 75.146C413.897 87.0209 412.11 88.7557 403.369 88.7557C388.577 88.7557 358.833 101.286 347.728 112.185C338.057 121.685 335.935 124.608 331.278 134.882C327.938 142.244 327.246 145.673 327.262 154.754C327.282 164.662 329.358 174.678 331.924 177.239C332.461 177.771 332.894 179.372 332.894 180.797C332.894 182.222 333.375 183.388 333.963 183.388C334.552 183.388 335.935 185.454 337.051 187.978C339.503 193.549 360.294 214.459 363.382 214.459C363.821 214.459 365.112 215.399 366.263 216.545C367.409 217.697 369.412 219.23 370.708 219.958C372.866 221.161 372.717 222.302 369.004 233.051C363.32 249.521 362.478 266.941 366.697 280.82C371.509 296.66 384.06 307.554 402.388 311.792C414.821 314.673 439.216 313.238 449.439 309.03C450.993 308.39 454.809 307.032 457.917 306.015C461.025 304.993 463.885 303.841 464.272 303.449C464.66 303.057 467.84 301.198 471.335 299.319C474.831 297.444 480.391 294.083 483.685 291.848L489.679 287.784L498.519 293.748C503.382 297.031 507.569 300.232 507.827 300.873C508.091 301.508 509.516 302.029 511.008 302.029C512.495 302.029 513.713 302.664 513.713 303.439C513.713 304.218 514.989 304.853 516.543 304.853C518.097 304.853 519.367 305.349 519.367 305.953C519.367 307.29 532.605 311.317 544.118 313.476C553.809 315.298 575.576 314.327 582.934 311.746C592.707 308.323 595.65 306.97 595.65 305.922C595.65 305.334 596.502 304.853 597.545 304.853C599.791 304.853 612.6 293.056 612.6 290.985C612.6 290.201 613.075 289.344 613.659 289.08C615.554 288.244 620.82 276.054 621.801 270.251C622.327 267.143 623.097 262.765 623.52 260.519C624.351 256.073 621.63 237.843 619.55 233.898C618.837 232.551 618.254 229.608 618.254 227.362C618.254 224.156 619.162 222.901 622.493 221.522C624.821 220.557 626.726 219.209 626.726 218.528C626.726 217.846 627.681 217.284 628.848 217.284C630.015 217.284 630.965 216.649 630.965 215.874C630.965 215.094 631.59 214.459 632.354 214.459C635.245 214.459 653.569 196.471 653.569 193.637C653.569 192.661 654.106 191.861 654.761 191.861C655.851 191.861 660.926 182.392 663.461 175.618C664.318 173.352 665.201 171.095 666.105 168.844C668.18 163.692 668.149 146.132 666.053 139.704C663.177 130.875 661.386 126.89 660.286 126.89C659.697 126.89 659.217 126.043 659.217 125C659.217 122.702 648.953 111.757 642.675 107.358C632.039 99.9078 604.964 91.5798 591.36 91.5798C584.658 91.5798 582.066 89.0964 580.77 81.4242C578.901 70.3547 568.075 42.206 564.584 39.325C564.115 38.9378 562.209 36.3924 560.361 33.6767C554.207 24.6466 540.298 12.3948 530.741 7.58285C516.636 0.478549 501.885 -1.59698 485.379 1.20137ZM170.435 198.346C136.494 204.33 111.814 216.736 90.2537 238.643C72.8802 256.29 62.6781 273.344 54.8716 297.79C48.1855 318.732 47.1529 325.128 47.0187 346.421C46.7812 382.98 56.0282 413.493 76.7938 444.688C80.6764 450.522 84.8997 456.16 86.175 457.219C87.4554 458.282 88.5035 460.028 88.5035 461.101C88.5035 462.175 84.4763 470.834 79.5508 480.349C66.54 505.493 54.438 537.917 49.1201 561.909C48.3869 565.208 47.6383 568.502 46.8741 571.796C44.7831 580.61 41.9641 602.594 40.3584 622.642L38.5978 644.533L30.399 658.855C18.9474 678.856 14.0116 691.687 5.20351 724.332C0.00952749 743.59 -1.76655 794.921 2.04892 815.434C6.91763 841.584 11.6573 858.204 19.5825 876.873C41.0709 927.512 75.7302 965.192 129.193 996.025C134.093 998.849 138.363 1001.16 138.683 1001.16C139.003 1001.16 144.532 1003.74 150.966 1006.9C170.373 1016.41 200.179 1025.98 227.652 1031.52C260.106 1038.06 291.926 1037.33 291.926 1030.05C291.926 1025.69 287.868 1023.68 270.381 1019.41C258.743 1016.56 252.878 1015.04 248.737 1013.78C246.352 1013.05 243.053 1012.46 241.406 1012.46C239.759 1012.46 238.019 1011.82 237.539 1011.05C237.059 1010.27 235.319 1009.63 233.672 1009.63C230.491 1009.63 222.215 1007.29 218.136 1005.23C216.784 1004.54 214.393 1003.99 212.818 1003.99C211.244 1003.99 208.848 1003.37 207.5 1002.6C206.153 1001.84 198.052 998.937 189.507 996.159C175.985 991.755 139.943 975.642 137.944 973.107C136.865 971.733 129.074 967.19 126.292 966.307C124.928 965.873 123.818 964.959 123.818 964.273C123.818 963.591 122.863 963.028 121.702 963.028C120.535 963.028 119.58 962.393 119.58 961.614C119.58 960.839 118.898 960.204 118.067 960.204C117.236 960.204 115.733 959.409 114.732 958.438C113.73 957.468 110.462 954.768 107.467 952.434C94.5287 942.366 80.9913 929.144 72.7253 918.503C70.9286 916.195 68.0218 912.839 66.2664 911.058C64.511 909.276 63.0757 907.309 63.0757 906.69C63.0757 906.07 61.4855 903.711 59.5442 901.454C57.6029 899.198 56.0127 896.56 56.0127 895.584C56.0127 894.613 55.5325 893.818 54.9491 893.813C54.3657 893.813 52.3005 890.318 50.3592 886.053C48.4179 881.783 46.3527 878.293 45.7693 878.288C45.1858 878.288 44.7108 877.307 44.7108 876.109C44.7108 874.911 43.5234 871.576 42.0725 868.695C35.5155 855.674 28.5506 831.165 25.5406 810.487C21.498 782.772 24.1104 740.787 31.4264 715.86C34.8185 704.3 41.897 686.524 46.6108 677.726C48.9032 673.451 51.4744 668.53 52.3314 666.791C53.1885 665.051 54.3657 663.62 54.9491 663.61C55.5325 663.605 56.0127 662.65 56.0127 661.483C56.0127 660.316 56.5754 659.366 57.2621 659.366C60.5613 659.366 62.7969 649.288 63.6849 630.412C65.5384 591.065 74.6873 546.74 86.5415 519.722C87.7755 516.903 89.2831 513.32 89.8872 511.771C92.4687 505.147 103.399 483.483 104.38 483.049C104.973 482.791 105.454 481.361 105.454 479.874C105.454 478.382 106.089 477.164 106.868 477.164C107.643 477.164 108.278 476.606 108.278 475.924C108.278 475.243 110.503 470.989 113.224 466.471C115.945 461.958 118.17 457.761 118.17 457.147C118.17 456.532 114.195 452.035 109.341 447.151C104.483 442.272 99.6091 436.536 98.5042 434.414C97.4045 432.292 95.9743 430.557 95.329 430.557C94.6836 430.557 94.1518 429.659 94.1518 428.554C94.1518 427.454 93.5942 426.344 92.9178 426.081C90.5016 425.167 77.2068 395.784 74.1606 384.653C71.605 375.297 71.0628 369.468 71.006 350.758C70.9234 323.192 73.0867 311.823 82.5505 290.025C93.2586 265.367 118.754 239.67 140.862 231.26C162.825 222.901 186.957 219.721 205.11 222.792C217.79 224.94 235.458 230.749 241.375 234.724C243.925 236.443 248.877 239.515 252.372 241.55C264.221 248.463 289.102 275.006 289.102 280.742C289.102 281.573 289.737 282.255 290.511 282.255C291.291 282.255 291.926 283.525 291.926 285.079C291.926 286.633 292.561 287.903 293.341 287.903C294.115 287.903 294.75 289.173 294.75 290.727C294.75 295.002 299.35 294.3 312.304 288.043C318.577 285.012 326.255 281.708 329.363 280.701C338.512 277.732 339.322 276.457 337.386 268.072C336.467 264.102 335.719 258.36 335.719 255.314C335.719 252.263 335.073 249.769 334.283 249.769C331.407 249.769 321.593 253.311 321.593 254.349C321.593 254.937 320.699 255.418 319.61 255.418C318.515 255.418 314.958 256.843 311.7 258.582L305.778 261.742L303.445 258.737C302.159 257.085 299.856 253.915 298.318 251.695C292.86 243.78 276.927 228.88 266.498 221.93C241.798 205.476 221.492 198.981 192.332 198.211C182.233 197.943 172.382 198.005 170.435 198.346ZM788.287 199.631C755.146 205.481 728.303 219.798 704.889 244.121C701.523 247.616 698.409 251.587 697.971 252.95C697.532 254.307 696.623 255.418 695.947 255.418C695.276 255.418 694.32 256.693 693.83 258.247C692.87 261.272 687.918 262.031 683.566 259.822C682.218 259.135 679.208 257.787 676.88 256.832C674.546 255.872 671.536 254.53 670.189 253.843C668.836 253.156 666.456 252.593 664.891 252.593C663.327 252.593 662.046 251.958 662.046 251.184C662.046 250.404 660.492 249.769 658.598 249.769C656.698 249.769 654.792 249.196 654.359 248.489C653.92 247.787 652.34 247.534 650.838 247.926C648.442 248.551 648.055 250.187 647.662 261.36C647.218 273.942 647.254 274.102 651.029 276.049C653.125 277.133 655.577 278.016 656.481 278.016C658.665 278.016 682.719 287.733 688.574 290.985C695.27 294.698 699.329 294.29 701.709 289.669C702.814 287.537 704.032 285.466 704.424 285.079C704.817 284.692 706.087 282.467 707.249 280.138C708.41 277.804 709.711 275.579 710.14 275.192C710.568 274.805 712.468 272.264 714.363 269.544C720.714 260.441 741.686 241.297 745.31 241.297C746.131 241.297 746.802 240.755 746.802 240.094C746.802 238.591 762.952 231.157 774.703 227.253C801.959 218.192 831.677 220.619 859.113 234.13C872.176 240.569 875.377 242.913 888.176 255.418C911.229 277.944 923.388 308.421 923.388 343.695C923.388 384.049 908.668 417.846 878.537 446.681C874.458 450.584 871.117 454.322 871.117 454.983C871.117 455.649 873.859 460.435 877.204 465.619C880.55 470.803 884.841 477.907 886.735 481.402C888.635 484.898 890.664 487.97 891.248 488.228C891.831 488.486 892.311 489.916 892.311 491.408C892.311 492.895 892.946 494.114 893.721 494.114C894.5 494.114 895.136 495.384 895.136 496.938C895.136 498.492 895.616 499.762 896.204 499.762C896.793 499.762 898.115 501.827 899.147 504.352L902.173 511.771C902.808 513.32 904.352 516.934 905.606 519.794C909.644 528.995 917.765 555.068 922.014 572.504C926.831 592.252 930.451 619.694 930.451 636.448C930.451 647.925 930.6 648.441 936.352 656.97C939.594 661.782 942.635 666.037 943.11 666.424C944.577 667.627 954.066 686.477 957.329 694.676C976.045 741.675 977.336 800.915 960.644 846.504C958.651 851.941 956.658 857.662 956.209 859.216C955.76 860.77 954.231 864.126 952.812 866.676C951.392 869.222 950.23 872.242 950.23 873.383C950.23 874.524 949.714 875.459 949.079 875.459C948.449 875.459 947.06 877.684 945.991 880.405C944.922 883.121 943.689 885.346 943.244 885.346C942.806 885.346 941.654 887.096 940.694 889.228C935.593 900.54 905.281 934.209 888.78 946.894C879.471 954.045 857.208 968.677 855.633 968.677C854.828 968.677 854.167 969.312 854.167 970.091C854.167 970.866 852.949 971.501 851.462 971.501C849.97 971.501 848.539 972.043 848.281 972.704C847.724 974.124 826.55 984.285 813.302 989.489C808.196 991.492 803.384 993.547 802.604 994.058C801.83 994.569 794.519 997.089 786.361 999.655C778.204 1002.22 770.253 1004.8 768.699 1005.38C761.548 1008.03 755.538 1009.63 752.791 1009.63C751.144 1009.63 749.405 1010.27 748.924 1011.05C748.444 1011.82 746.529 1012.46 744.67 1012.46C742.806 1012.46 739.827 1013.03 738.041 1013.73C736.259 1014.42 732.253 1015.65 729.145 1016.46C704.218 1022.91 700.614 1024.16 698.859 1026.97C697.238 1029.57 697.382 1030.25 700 1032.37C707.496 1038.44 735.79 1036.7 773.645 1027.86C820.504 1016.91 872.78 991.611 908.466 962.605C916.505 956.074 939.026 933.491 943.167 927.822C945.108 925.158 948.041 921.342 949.678 919.344C957.376 909.968 968.848 889.579 977.542 869.81C979.861 864.549 987.202 841.796 989.619 832.384C993.925 815.63 997.472 781.766 996.305 768.564C993.279 734.369 990.357 718.359 983.48 698.275C979.339 686.178 966.912 660.574 960.979 651.911C953.989 641.703 953.054 638.75 953.054 626.865C953.054 620.571 952.398 610.844 951.603 605.258C947.814 578.772 945.01 564.042 943.012 560.164C942.32 558.817 941.752 555.832 941.752 553.535C941.752 551.242 941.117 548.971 940.338 548.491C939.563 548.01 938.928 546.105 938.928 544.252C938.928 542.403 938.365 540.539 937.679 540.116C936.992 539.693 936.109 537.586 935.722 535.444C935.015 531.525 930.595 518.86 926.723 509.649C925.577 506.933 919.572 494.537 913.382 482.11C907.186 469.677 902.147 458.876 902.178 458.097C902.214 457.322 904.135 454.462 906.443 451.741C911.859 445.37 912.117 445.024 916.438 438.322C926.222 423.164 927.224 421.315 933.889 406.193C936.068 401.247 940.678 386.739 942.976 377.59C943.756 374.482 945.165 365.483 946.11 357.593C947.741 343.937 947.576 339.967 944.52 319.682C942.093 303.594 941.437 300.589 940.183 299.814C939.491 299.386 938.928 297.522 938.928 295.673C938.928 293.82 938.293 291.915 937.514 291.435C936.739 290.955 936.104 289.607 936.104 288.44C936.104 285.564 928.184 269.208 922.169 259.656C915.287 248.726 896.24 229.484 884.541 221.636C868.665 210.99 856.661 205.662 839.334 201.567C823.896 197.917 802.583 197.112 788.287 199.631ZM173.832 316.279C166.367 319.898 158.855 326.822 154.735 333.869C151.962 338.614 151.472 341.428 151.466 352.498C151.461 360.862 152.076 366.154 153.18 367.259C154.125 368.203 154.9 370.067 154.9 371.404C154.9 375.132 168.783 389.599 172.361 389.599C174.085 389.599 176.621 387.9 178.175 385.711C183.265 378.545 207.284 354.935 213.459 351.026C216.82 348.899 221.647 345.347 224.187 343.132L228.798 339.105L225.814 334.907C223.103 331.107 216.288 324.586 209.153 318.979C201.005 312.567 184.133 311.276 173.832 316.279ZM790.595 314.658C789.433 315.303 786.599 316.692 784.306 317.756C778.137 320.606 763.758 335.14 763.758 338.521C763.758 340.241 765.482 342.435 767.997 343.917C770.325 345.295 772.235 346.922 772.235 347.531C772.235 348.14 773.03 348.651 774.001 348.661C777.626 348.718 803.564 372.855 812.295 384.302C814.52 387.214 817.097 389.599 818.026 389.599C820.876 389.599 828.321 380.853 833.066 371.941C837.109 364.342 837.573 362.23 837.594 351.46C837.62 337.587 835.699 332.099 828.078 324.256C820.164 316.109 813.524 313.316 802.31 313.414C797.033 313.455 791.762 314.018 790.595 314.658ZM298.282 616.126C280.97 620.334 262.001 634.646 254.138 649.422C247.55 661.803 252.439 672.077 264.923 672.077C267.629 672.077 270.272 670.534 273.334 667.173C275.792 664.472 277.8 661.648 277.8 660.894C277.8 660.135 281.042 656.33 285.008 652.427C294.094 643.485 303.92 639.566 317.054 639.654C332.579 639.752 344.563 645.762 353.474 657.91C363.914 672.15 363.831 672.077 369.794 672.077C377.828 672.077 382.335 667.276 382.335 658.721C382.335 655.189 381.7 652.303 380.926 652.303C380.146 652.303 379.511 651.348 379.511 650.181C379.511 649.019 378.876 648.064 378.097 648.064C377.322 648.064 376.687 647.212 376.687 646.169C376.687 643.542 365.974 632.549 358.312 627.324C350.727 622.151 341.362 617.737 333.602 615.682C326.193 613.72 307.198 613.957 298.282 616.126ZM647.213 616.178C627.702 621.072 611.656 632.715 602.801 648.395C598.149 656.635 597.53 660.595 600.116 665.458C602.662 670.229 605.754 671.984 611.733 672.031C615.998 672.067 617.96 671.21 620.557 668.19C622.395 666.057 623.902 663.512 623.902 662.541C623.902 661.571 624.403 660.776 625.012 660.776C625.621 660.776 627.207 658.932 628.539 656.676C631.414 651.807 643.46 643.681 651.617 641.099C660.301 638.353 676.777 639.618 685.089 643.676C692.307 647.192 705.839 659.851 705.839 663.089C705.839 664.147 706.474 665.014 707.249 665.014C708.028 665.014 708.663 665.696 708.663 666.527C708.663 669.625 712.866 672.072 718.096 672.031C731.386 671.923 734.798 658.421 725.04 644.579C721.266 639.236 708.854 626.88 707.259 626.88C706.588 626.88 705.199 626.06 704.171 625.058C695.028 616.126 665.676 611.546 647.213 616.178ZM443.46 701.78C434.466 703.603 428.028 707.124 421.187 713.965C407.608 727.538 405.636 746.848 415.652 768.187C418.554 774.362 421.321 779.416 421.812 779.416C422.297 779.416 423.841 781.358 425.24 783.727C429.169 790.372 451.37 811.902 454.297 811.902C455.123 811.902 455.8 812.377 455.805 812.96C455.81 813.544 457.245 814.731 458.985 815.599C468.883 820.54 471.495 822.28 472.858 824.82C475.006 828.832 473.008 845.152 469.43 852.86C465.289 861.771 453.709 872.96 443.734 877.668C436.155 881.252 433.826 881.649 420.48 881.644C406.586 881.634 405.042 881.339 396.095 876.977C390.844 874.421 383.466 869.31 379.702 865.628C370.827 856.939 362.561 839.808 362.561 830.107C362.561 824.629 357.62 820.364 351.347 820.421C345.626 820.473 342.942 822.223 340.081 827.773C338.408 831.015 338.378 832.967 339.88 839.782C344.16 859.175 352.679 874.447 365.685 886.043C382.48 901.016 410.438 909.793 430.955 906.53C441.844 904.8 454.328 900.484 460.25 896.405C462.316 894.985 464.443 893.823 464.98 893.823C465.961 893.823 481.548 878.164 485.363 873.347C487.248 870.967 487.743 871.23 492.999 877.452C502.386 888.573 515.902 897.918 529.961 903.014C534.938 904.815 552.4 907.944 557.506 907.944C562.318 907.944 577.946 905.001 583.641 903.019C593.714 899.518 605.46 891.939 614.779 882.93C620.577 877.333 625.317 872.134 625.317 871.38C625.317 870.626 626.138 869.17 627.139 868.143C631.616 863.563 639.443 841.94 639.443 834.149C639.443 825.739 634.626 820.375 627.077 820.375C620.711 820.375 615.424 824.856 615.424 830.251C615.424 836.772 611.175 847.687 604.964 857.099C598.185 867.379 592.661 871.622 575.406 879.811C572.819 881.04 566.082 881.701 556.334 881.68C543.055 881.654 540.339 881.215 533.493 877.968C529.218 875.944 524.344 873.12 522.661 871.695C515.691 865.788 514.292 864.461 511.596 861.193C509.046 858.101 507.745 855.71 503.568 846.468C502.861 844.899 502.468 838.915 502.701 833.174L503.119 822.734L508.772 819.409C511.88 817.576 515.376 815.661 516.543 815.155C517.704 814.644 518.98 813.843 519.367 813.379C519.754 812.914 522.934 810.338 526.43 807.658C533.085 802.547 550.391 785.054 550.422 783.402C550.438 782.876 551.269 781.606 552.276 780.578C554.021 778.792 561.063 764.759 564.404 756.4C565.271 754.226 565.984 747.772 565.984 742.057C565.984 731.411 563.17 723.32 557.155 716.655C555.797 715.147 554.682 713.485 554.682 712.958C554.682 710.743 542.714 704.331 534.809 702.307C521.132 698.801 508.225 702.694 494.688 714.409C491.073 717.538 487.919 720.099 487.676 720.099C487.428 720.099 484.506 717.61 481.176 714.564C469.57 703.959 455.789 699.286 443.46 701.78Z" fill="#3B5BFF"/>
</svg>
