<svg width="605" height="955" viewBox="0 0 605 955" fill="none" xmlns="http://www.w3.org/2000/svg">
<path d="M11.7656 930.033L0.461397 910.239H5.53676L12.9653 923.574C13.4267 924.358 13.7035 925.004 14.0726 925.788C14.4879 924.958 14.5801 924.681 15.18 923.574L22.5623 910.239H27.4993L16.2873 930.033V943.598H11.7656V930.033ZM25.0913 932.294C25.0913 925.327 30.0744 920.436 36.857 920.436C43.5934 920.436 48.5764 925.327 48.5764 932.294C48.5764 939.261 43.5934 944.152 36.857 944.152C30.0744 944.152 25.0913 939.261 25.0913 932.294ZM29.4746 932.294C29.4746 937 32.4737 940.276 36.857 940.276C41.1941 940.276 44.2393 937 44.2393 932.294C44.2393 927.588 41.1941 924.312 36.857 924.312C32.4737 924.312 29.4746 927.588 29.4746 932.294ZM68.432 921.036H72.723V943.598H68.8473L68.3859 940.184C67.094 942.537 64.0949 944.152 60.7728 944.152C55.5129 944.152 52.56 940.599 52.56 935.062V921.036H56.8971V933.632C56.8971 938.477 58.9734 940.322 62.2954 940.322C66.2635 940.322 68.432 937.785 68.432 932.94V921.036ZM91.9348 920.851V924.819H89.9969C85.8905 924.819 83.3528 927.311 83.3528 931.648V943.598H79.0157V921.082H83.076L83.3528 924.496C84.2756 922.143 86.5364 920.575 89.6278 920.575C90.4122 920.575 91.0581 920.667 91.9348 920.851ZM107.189 931.74C107.189 925.373 111.295 920.39 117.847 920.39C121.492 920.39 124.306 922.051 125.737 924.866L126.06 921.036H129.936V942.675C129.936 949.781 125.552 954.303 118.631 954.303C112.495 954.303 108.296 950.842 107.465 945.121H111.803C112.356 948.443 114.848 950.381 118.631 950.381C122.876 950.381 125.645 947.612 125.645 943.321V938.8C124.168 941.43 121.215 942.998 117.662 942.998C111.249 942.998 107.189 938.062 107.189 931.74ZM111.526 931.648C111.526 935.893 114.156 939.215 118.401 939.215C122.784 939.215 125.46 936.077 125.46 931.648C125.46 927.311 122.876 924.173 118.447 924.173C114.11 924.173 111.526 927.496 111.526 931.648ZM134.718 932.294C134.718 925.327 139.701 920.436 146.484 920.436C153.22 920.436 158.203 925.327 158.203 932.294C158.203 939.261 153.22 944.152 146.484 944.152C139.701 944.152 134.718 939.261 134.718 932.294ZM139.101 932.294C139.101 937 142.101 940.276 146.484 940.276C150.821 940.276 153.866 937 153.866 932.294C153.866 927.588 150.821 924.312 146.484 924.312C142.101 924.312 139.101 927.588 139.101 932.294ZM162.774 933.309V929.433H176.846V933.309H162.774ZM188.341 943.598H184.004V924.681H179.575V921.036H184.004V913.977H188.341V921.036H192.771V924.681H188.341V943.598ZM194.961 932.294C194.961 925.327 199.944 920.436 206.727 920.436C213.463 920.436 218.446 925.327 218.446 932.294C218.446 939.261 213.463 944.152 206.727 944.152C199.944 944.152 194.961 939.261 194.961 932.294ZM199.344 932.294C199.344 937 202.343 940.276 206.727 940.276C211.064 940.276 214.109 937 214.109 932.294C214.109 927.588 211.064 924.312 206.727 924.312C202.343 924.312 199.344 927.588 199.344 932.294ZM242.231 943.598H237.894V924.681H233.464V921.036H237.894V913.977H242.231V921.036H246.66V924.681H242.231V943.598ZM263.472 920.851V924.819H261.534C257.427 924.819 254.89 927.311 254.89 931.648V943.598H250.553V921.082H254.613L254.89 924.496C255.813 922.143 258.073 920.575 261.165 920.575C261.949 920.575 262.595 920.667 263.472 920.851ZM273.236 944.152C268.392 944.152 265.531 941.43 265.531 937.323C265.531 933.171 268.622 930.587 273.928 930.172L281.034 929.618V928.972C281.034 925.189 278.773 923.85 275.728 923.85C272.083 923.85 270.007 925.465 270.007 928.188H266.223C266.223 923.481 270.099 920.39 275.912 920.39C281.495 920.39 285.279 923.343 285.279 929.433V943.598H281.588L281.126 939.953C279.973 942.537 276.881 944.152 273.236 944.152ZM274.482 940.784C278.589 940.784 281.08 938.108 281.08 933.863V932.663L275.313 933.125C271.483 933.494 269.914 934.97 269.914 937.185C269.914 939.584 271.668 940.784 274.482 940.784ZM296.705 943.598L287.616 921.036H292.23L297.167 933.632C297.951 935.755 298.597 937.646 298.966 939.03C299.335 937.554 300.073 935.616 300.858 933.632L305.887 921.036H310.409L300.996 943.598H296.705ZM322.559 944.152C315.915 944.152 311.347 939.353 311.347 932.34C311.347 925.281 315.822 920.39 322.374 920.39C328.788 920.39 332.986 924.819 332.986 931.51V933.125L315.545 933.171C315.868 937.923 318.36 940.553 322.651 940.553C326.019 940.553 328.234 939.169 328.972 936.585H333.032C331.925 941.43 328.142 944.152 322.559 944.152ZM322.374 924.035C318.591 924.035 316.191 926.296 315.638 930.264H328.649C328.649 926.527 326.204 924.035 322.374 924.035ZM342.26 943.598H337.923V909.639H342.26V943.598ZM359.784 932.34C359.784 925.281 364.26 920.39 370.858 920.39C376.533 920.39 380.501 923.62 381.285 928.649H376.948C376.21 925.788 373.903 924.266 370.996 924.266C366.89 924.266 364.075 927.403 364.075 932.294C364.075 937.139 366.705 940.276 370.812 940.276C373.903 940.276 376.21 938.661 376.994 935.985H381.332C380.455 940.876 376.256 944.152 370.812 944.152C364.168 944.152 359.784 939.446 359.784 932.34ZM384.431 932.294C384.431 925.327 389.414 920.436 396.197 920.436C402.933 920.436 407.916 925.327 407.916 932.294C407.916 939.261 402.933 944.152 396.197 944.152C389.414 944.152 384.431 939.261 384.431 932.294ZM388.815 932.294C388.815 937 391.814 940.276 396.197 940.276C400.534 940.276 403.579 937 403.579 932.294C403.579 927.588 400.534 924.312 396.197 924.312C391.814 924.312 388.815 927.588 388.815 932.294ZM417.055 943.598H412.717V921.036H416.593L417.008 923.989C418.162 921.866 420.561 920.39 423.745 920.39C427.251 920.39 429.743 922.143 430.896 924.958C431.958 922.143 434.68 920.39 438.187 920.39C443.354 920.39 446.492 923.62 446.492 928.834V943.598H442.247V929.895C442.247 926.342 440.263 924.312 437.218 924.312C433.942 924.312 431.773 926.619 431.773 930.218V943.598H427.482V929.849C427.482 926.296 425.544 924.358 422.499 924.358C419.223 924.358 417.055 926.619 417.055 930.218V943.598ZM452.504 953.703V921.036H456.426L456.749 925.096C458.271 922.005 461.317 920.39 464.915 920.39C471.375 920.39 475.389 925.235 475.389 932.156C475.389 939.03 471.606 944.198 464.915 944.198C461.317 944.198 458.317 942.675 456.841 939.907V953.703H452.504ZM456.887 932.34C456.887 936.954 459.563 940.276 463.993 940.276C468.422 940.276 471.052 936.954 471.052 932.34C471.052 927.68 468.422 924.358 463.993 924.358C459.563 924.358 456.887 927.634 456.887 932.34ZM486.768 944.152C481.923 944.152 479.062 941.43 479.062 937.323C479.062 933.171 482.154 930.587 487.46 930.172L494.565 929.618V928.972C494.565 925.189 492.304 923.85 489.259 923.85C485.614 923.85 483.538 925.465 483.538 928.188H479.754C479.754 923.481 483.63 920.39 489.444 920.39C495.027 920.39 498.81 923.343 498.81 929.433V943.598H495.119L494.658 939.953C493.504 942.537 490.413 944.152 486.768 944.152ZM488.013 940.784C492.12 940.784 494.611 938.108 494.611 933.863V932.663L488.844 933.125C485.014 933.494 483.446 934.97 483.446 937.185C483.446 939.584 485.199 940.784 488.013 940.784ZM509.154 943.598H504.817V921.036H508.738L509.2 924.496C510.63 921.913 513.491 920.39 516.674 920.39C522.626 920.39 525.349 924.035 525.349 929.802V943.598H521.012V930.771C521.012 926.204 518.889 924.358 515.567 924.358C511.507 924.358 509.154 927.265 509.154 931.648V943.598ZM533.478 915.684C531.91 915.684 530.618 914.392 530.618 912.823C530.618 911.208 531.91 909.962 533.478 909.962C535.047 909.962 536.339 911.208 536.339 912.823C536.339 914.392 535.047 915.684 533.478 915.684ZM531.356 943.598V921.036H535.693V943.598H531.356ZM540.513 932.294C540.513 925.327 545.496 920.436 552.279 920.436C559.015 920.436 563.998 925.327 563.998 932.294C563.998 939.261 559.015 944.152 552.279 944.152C545.496 944.152 540.513 939.261 540.513 932.294ZM544.896 932.294C544.896 937 547.896 940.276 552.279 940.276C556.616 940.276 559.661 937 559.661 932.294C559.661 927.588 556.616 924.312 552.279 924.312C547.896 924.312 544.896 927.588 544.896 932.294ZM573.136 943.598H568.799V921.036H572.721L573.183 924.496C574.613 921.913 577.474 920.39 580.657 920.39C586.609 920.39 589.331 924.035 589.331 929.802V943.598H584.994V930.771C584.994 926.204 582.872 924.358 579.55 924.358C575.49 924.358 573.136 927.265 573.136 931.648V943.598ZM598.568 944.152C596.769 944.152 595.246 942.675 595.246 940.922C595.246 939.123 596.769 937.646 598.568 937.646C600.322 937.646 601.844 939.123 601.844 940.922C601.844 942.675 600.322 944.152 598.568 944.152Z" fill="#3B5BFF"/>
<path d="M0 887.89V723.412H25.7068L27.5267 740.474C34.3515 727.507 49.1386 720 66.2006 720C97.8222 720 118.752 742.977 118.752 778.238C118.752 813.272 99.6422 838.752 66.2006 838.752C49.3661 838.752 34.8065 832.154 27.7542 820.78V887.89H0ZM27.9817 779.603C27.9817 799.85 40.4939 813.727 59.6033 813.727C79.1678 813.727 90.7699 799.623 90.7699 779.603C90.7699 759.584 79.1678 745.252 59.6033 745.252C40.4939 745.252 27.9817 759.356 27.9817 779.603Z" fill="#3B5BFF"/>
<path d="M174.292 838.752C150.405 838.752 135.846 824.875 135.846 803.718C135.846 783.016 150.86 770.049 177.477 768.001L211.146 765.499V762.996C211.146 747.754 202.046 741.612 187.942 741.612C171.562 741.612 162.462 748.437 162.462 760.266H138.803C138.803 735.925 158.822 720 189.307 720C219.563 720 238.218 736.38 238.218 767.546V835.794H213.876L211.828 819.187C207.051 830.789 191.809 838.752 174.292 838.752ZM183.392 817.822C200.454 817.822 211.373 807.585 211.373 790.296V784.381L187.942 786.201C170.652 787.793 164.055 793.48 164.055 802.58C164.055 812.817 170.88 817.822 183.392 817.822Z" fill="#3B5BFF"/>
<path d="M292.889 835.794L248.3 723.412H277.874L297.439 775.053C302.216 788.476 306.084 800.078 307.449 806.22C309.041 799.168 313.136 787.338 317.913 775.053L338.388 723.412H367.052L320.188 835.794H292.889Z" fill="#3B5BFF"/>
<path d="M427.729 838.752C394.287 838.752 370.855 814.41 370.855 779.603C370.855 744.342 393.832 720 426.819 720C460.488 720 481.872 742.522 481.872 777.556V785.973L397.245 786.201C399.292 805.993 409.757 816.002 428.184 816.002C443.426 816.002 453.435 810.087 456.62 799.395H482.327C477.55 823.965 457.075 838.752 427.729 838.752ZM427.046 742.749C410.667 742.749 400.657 751.622 397.927 768.456H454.345C454.345 752.987 443.653 742.749 427.046 742.749Z" fill="#3B5BFF"/>
<path d="M490.526 887.89V864.686H507.133C518.053 864.686 524.877 862.183 529.655 848.989L532.84 840.572L487.568 723.412H516.915L545.807 805.31L576.291 723.412H604.955L549.902 860.818C541.484 881.748 529.655 890.393 511.228 890.393C503.493 890.393 496.668 889.483 490.526 887.89Z" fill="#3B5BFF"/>
<rect x="255.453" y="864.559" width="254.846" height="25.4846" fill="#3B5BFF"/>
<rect y="887.616" width="27.7539" height="2.4271" fill="#3B5BFF"/>
<path d="M290.191 0.536123C316.11 -1.61086 346.713 2.82166 371.15 11.4839C428.381 31.9384 475.033 74.4768 500.665 129.586C529.849 191.168 528.391 262.447 505.625 325.76C476.274 407.369 409.416 483.461 351.644 546.967C343.004 556.466 322.954 580.918 312.408 585.878C303.076 588.909 293.135 587.651 285.94 580.635C278.9 573.763 272.357 566.359 265.711 559.099C252.155 544.379 238.816 529.455 225.697 514.341C156.891 435.393 88.4755 350.134 83.3165 240.751C80.0689 178.613 101.923 117.777 143.969 71.912C180.88 31.3942 235.064 3.09045 290.191 0.536123ZM147.23 378.766C148.17 377.105 149.159 375.257 150.174 373.661C128.241 338.739 120.249 302.224 146.861 266.47C147.045 243.709 154.504 223.752 167.93 205.576C158.627 193.488 153.583 182.887 155.646 166.968C157.249 154.79 163.727 143.784 173.595 136.47C191.943 122.691 216.559 124.198 233.224 139.872C235.593 142.1 237.638 144.38 239.781 146.824C244.933 144.658 248.363 143.475 253.813 141.962C252.582 146.123 252.1 149.136 252.105 153.525C245.934 155.551 241.815 157.31 235.878 160.056C228.735 149.367 221.41 141.058 208.013 138.355C198.994 136.596 189.647 138.495 182.029 143.633C173.968 148.987 168.402 157.361 166.586 166.865C163.498 182.922 171.043 194.041 181.994 204.646C165.817 225.701 157.744 242.793 157.322 270.463C117.819 320.871 157.245 376.274 199.387 407.965C222.127 425.066 279.857 459.154 308.437 455.352C308.916 455.291 309.394 455.219 309.871 455.147C360.719 444.007 420.999 406.77 449.867 362.501C469.009 333.15 471.863 299.221 449.041 270.742C447.168 241.985 442.025 227.498 424.296 204.666C433.634 195.124 440.157 187.115 440.113 172.819C440.091 163.397 436.256 154.386 429.478 147.844C422.761 141.215 413.65 137.591 404.218 137.797C388.486 138.212 378.428 147.341 370.416 159.952C364.842 157.766 358.793 155.26 353.133 153.48C352.899 149.211 352.415 145.877 351.277 141.724C355.623 142.92 362.229 145.021 366.386 146.898C375.309 136.021 386.486 128.65 400.776 127.229C412.658 126.125 424.496 129.767 433.706 137.359C443.117 145.162 449.523 156.261 450.643 168.514C451.862 181.151 447.977 193.751 439.853 203.505C439.265 204.202 438.655 204.88 438.029 205.539C451.541 224.273 459.399 243.189 459.432 266.765C485.829 300.263 477.959 340.151 456.102 373.23C457.011 375.064 457.919 376.994 458.9 378.779C468.771 361.842 477.244 347.005 484.804 328.805C504.893 280.434 511.46 227.42 498.071 176.423C484.255 121.752 449.074 74.9124 400.422 46.4037C369.64 28.4552 334.456 19.4616 298.837 20.4365C246.11 21.7976 196.097 44.101 159.849 82.4164C120.156 124.542 98.9382 180.781 100.915 238.628C102.293 289.254 120.777 336.186 147.23 378.766Z" fill="#3B5BFF"/>
<path d="M301.927 68.5474C316.936 68.512 323.646 83.1396 327.447 95.4895C360.077 95.5222 369.392 119.683 340.44 136.304C353.295 170.561 328.323 178.756 302.541 160.894C300.86 161.492 294.332 165.974 291.142 167.198C285.062 169.575 276.129 171.409 269.831 168.686C255.533 162.507 260.03 146.584 264.435 136.024C262.05 134.401 259.754 132.65 257.558 130.779C252.893 126.799 248.875 121.25 248.509 114.94C248.229 110.621 249.81 106.39 252.852 103.313C259.294 96.6799 270.205 95.4834 278.91 95.393C282.342 82.6386 287.917 71.1206 301.927 68.5474Z" fill="#3B5BFF"/>
<path d="M301.959 306.309C307.05 300.861 313.251 297.115 321.076 299.152C325.174 300.204 328.635 302.941 330.602 306.686C339.205 322.884 319.053 337.414 307.087 343.905C306.369 369.804 341.309 369.072 345.702 350.372C349.731 333.218 359.89 337.75 357.258 349.86C353.321 367.975 336.419 377.972 317.215 373.329C310.652 371.4 306.138 367.907 301.92 362.651C301.242 363.556 300.509 364.418 299.725 365.233C294.045 371.143 286.231 374.526 278.034 374.625C269.396 374.793 261.057 371.463 254.91 365.393C251.153 361.624 238.242 340.215 252.252 339.503C256.25 339.3 257.241 350.853 260.874 355.764C268.138 365.58 280.287 366.418 290.116 359.731C295.311 356.128 296.585 349.769 297.228 344.127C286.391 338.214 265.88 323.98 272.84 307.492C274.716 303.048 279.668 300.574 284.118 299.03C292.76 298.296 296.17 300.264 301.959 306.309Z" fill="#3B5BFF"/>
<path d="M235.886 258.755C247.494 256.924 258.39 264.848 260.228 276.456C262.065 288.063 254.148 298.964 242.541 300.808C230.925 302.654 220.013 294.729 218.174 283.112C216.336 271.494 224.267 260.586 235.886 258.755ZM247.731 279.654C251.161 278.349 252.88 274.505 251.567 271.078C250.253 267.65 246.405 265.941 242.981 267.264C239.569 268.581 237.866 272.412 239.176 275.828C240.485 279.244 244.312 280.955 247.731 279.654Z" fill="#3B5BFF"/>
<path d="M371.861 269.692C376.552 269.45 391.072 269.453 388.139 278.019C385.95 284.41 370.011 276.229 367.632 281.547C374.907 282.565 386.555 285.965 389.087 295.423C389.957 298.672 385.958 300.493 382.904 300.771C381.042 299.589 378.8 296.9 376.965 295.313C372.434 291.394 366.025 289.976 360.259 291.472C355.977 292.583 349.351 297.095 345.878 292.764C345.275 289.742 346.198 287.672 347.714 285.056C352.847 276.203 362.18 271.705 371.861 269.692Z" fill="#3B5BFF"/>
<path d="M398.695 164.398C421.055 161.607 415.097 187.75 407.992 186.534C402.824 182.094 397.819 178.743 392.69 174.48C391.256 173.288 391.291 171.839 391.302 170.289C392.853 167.002 395.522 166 398.695 164.398Z" fill="#3B5BFF"/>
<path d="M199.678 164.406C208.309 163.548 211.167 165.172 216.217 172.034C211.885 175.716 207.243 178.93 202.709 182.854C201.458 184.028 198.695 187.032 196.845 186.641C191.285 185.468 191.13 176.817 192.388 172.419C193.676 167.922 195.75 166.537 199.678 164.406Z" fill="#3B5BFF"/>
<path d="M283.952 611.815C302.214 610.778 403.914 611.46 412.426 625.276C412.409 637.557 331.406 639.758 320.823 639.841C300.304 640.423 204.284 640.085 194.277 626.739C193.322 614.209 272.095 611.97 283.952 611.815Z" fill="#3B5BFF"/>
</svg>
